HIERARCHY
ROOT Hips
{
	OFFSET 0.00 0.00 0.00
	CHANNELS 6 Xposition Yposition Zposition Xrotation Yrotation Zrotation
	JOINT Spine
	{
		OFFSET 0.00000 5.19526 0.00000
		CHANNELS 3 Xrotation Yrotation Zrotation
		JOINT Head
		{
			OFFSET 0.00000 15.65388 0.00000
			CHANNELS 3 Xrotation Yrotation Zrotation
			End Site
			{
				OFFSET 0.00000 4.52755 0.00000
			}
		}
		JOINT LeftShoulder
		{
			OFFSET 0.00000 10.32977 0.00000
			CHANNELS 3 Xrotation Yrotation Zrotation
			JOINT LeftArm
			{
				OFFSET 6.99601 0.00000 0.00000
				CHANNELS 3 Xrotation Yrotation Zrotation
				JOINT LeftForeArm
				{
					OFFSET 10.20930 0.00000 0.00000
					CHANNELS 3 Yrotation Zrotation Xrotation
					JOINT LeftHand
					{
						OFFSET 8.56316 0.00000 0.00000
						CHANNELS 3 Xrotation Yrotation Zrotation
						JOINT LeftHandThumb1
						{
							OFFSET 0.00000 0.00000 0.00000
							CHANNELS 3 Xrotation Zrotation Yrotation
							End Site
							{
								OFFSET 0.00000 0.00000 3.93700
							}
						}
						End Site
						{
							OFFSET 3.93700 0.00000 0.00000
						}
					}
				}
			}
		}
		JOINT RightShoulder
		{
			OFFSET 0.00000 10.32977 0.00000
			CHANNELS 3 Xrotation Yrotation Zrotation
			JOINT RightArm
			{
				OFFSET -6.99601 0.00000 0.00000
				CHANNELS 3 Xrotation Yrotation Zrotation
				JOINT RightForeArm
				{
					OFFSET -10.20930 0.00000 0.00000
					CHANNELS 3 Yrotation Zrotation Xrotation
					JOINT RightHand
					{
						OFFSET -8.56316 0.00000 0.00000
						CHANNELS 3 Xrotation Yrotation Zrotation
						JOINT RightHandThumb1
						{
							OFFSET 0.00000 0.00000 0.00000
							CHANNELS 3 Xrotation Zrotation Yrotation
							End Site
							{
								OFFSET 0.00000 0.00000 3.93700
							}
						}
						End Site
						{
							OFFSET -3.93700 0.00000 0.00000
						}
					}
				}
			}
		}
	}
	JOINT LeftUpLeg
	{
		OFFSET 3.35136 0.00000 0.00000
		CHANNELS 3 Xrotation Yrotation Zrotation
		JOINT LeftLeg
		{
			OFFSET 0.00000 -16.34683 0.00000
			CHANNELS 3 Xrotation Yrotation Zrotation
			JOINT LeftFoot
			{
				OFFSET 0.00000 -13.95979 0.00000
				CHANNELS 3 Xrotation Yrotation Zrotation
				JOINT LeftToeBase
				{
					OFFSET 0.00000 -1.33694 4.98954
					CHANNELS 3 Xrotation Yrotation Zrotation
					End Site
					{
						OFFSET 0.00000 0.00000 2.95275
					}
				}
			}
		}
	}
	JOINT RightUpLeg
	{
		OFFSET -3.35136 0.00000 0.00000
		CHANNELS 3 Xrotation Yrotation Zrotation
		JOINT RightLeg
		{
			OFFSET 0.00000 -16.34683 0.00000
			CHANNELS 3 Xrotation Yrotation Zrotation
			JOINT RightFoot
			{
				OFFSET 0.00000 -13.95979 0.00000
				CHANNELS 3 Xrotation Yrotation Zrotation
				JOINT RightToeBase
				{
					OFFSET 0.00000 -1.33694 4.98954
					CHANNELS 3 Xrotation Yrotation Zrotation
					End Site
					{
						OFFSET 0.00000 0.00000 2.95275
					}
				}
			}
		}
	}
}
MOTION
Frames:	13
Frame Time: 0.008333
1.8167 31.7727 -5.5304 8.5010 -6.0022 -2.0077 -8.6839 11.4826 2.0282 5.9317 -5.1766 -3.6219 -6.4587 13.7522 4.8407 -24.1271 66.9307 -63.6009 -147.5293 -0.0000 -47.2256 -1.0623 -2.0264 -27.6720 32.8623 0.0000 24.3270 15.8861 -16.5118 -6.8025 -18.5404 35.0214 89.3753 14.7729 0.0000 -7.4649 0.4433 -10.6601 2.3949 33.1476 -0.0000 -26.2537 -1.6173 7.8731 3.7819 -4.0422 0.0000 -0.0000 -13.1915 16.5089 1.8106 3.9222 -0.0000 -0.0000 -3.8302 -1.0889 -0.8013 -0.1698 0.0000 -0.0000 -10.6456 -28.3799 11.9656 9.5110 -0.0000 -0.0000
1.8232 31.7730 -5.5319 8.5204 -6.0103 -1.9535 -8.7006 11.5079 2.0071 5.9232 -5.2018 -3.6927 -6.4767 13.7004 4.7874 -23.6163 66.8878 -63.8997 -146.7330 -0.0000 -47.1501 -0.8637 -1.7311 -26.5209 32.8623 0.0000 24.3270 15.8933 -16.5313 -6.8247 -18.4925 34.9570 89.3568 14.7652 0.0000 -7.4416 0.4673 -10.6259 2.5328 33.1476 -0.0000 -26.2537 -1.4519 7.3446 3.7317 -4.3338 0.0000 -0.0000 -13.0281 16.9877 1.7925 3.9562 -0.0000 -0.0000 -3.8601 -1.1126 -0.8691 -0.1613 0.0000 -0.0000 -10.6622 -28.3412 12.0026 9.5102 -0.0000 -0.0000
1.8212 31.7734 -5.5323 8.5193 -6.0248 -1.9491 -8.7070 11.5376 2.0209 5.9217 -5.2360 -3.7494 -6.5123 13.6685 4.7455 -23.1371 66.8156 -64.2449 -145.7879 0.0000 -46.9568 -0.7110 -1.4830 -25.6170 32.8623 0.0000 24.3270 15.9142 -16.5459 -6.8347 -18.4531 34.8887 89.3447 14.7716 -0.0000 -7.3941 0.4872 -10.5943 2.6483 33.1476 -0.0000 -26.2537 -1.4307 7.2968 3.7319 -4.3656 0.0000 -0.0000 -13.0024 17.0492 1.7887 3.9722 -0.0000 -0.0000 -3.8620 -1.1151 -0.8697 -0.1614 0.0000 -0.0000 -10.6553 -28.3264 12.0240 9.5564 -0.0000 -0.0000
1.8174 31.7737 -5.5325 8.5206 -6.0340 -1.9528 -8.7222 11.5711 2.0400 5.9357 -5.2567 -3.7945 -6.5770 13.6038 4.6932 -22.7710 66.7674 -64.4011 -144.7139 -0.0000 -46.8882 -0.4658 -1.0126 -24.7019 32.8623 0.0000 24.3270 15.9647 -16.5686 -6.8330 -18.4316 34.8385 89.3288 14.7972 0.0000 -7.3654 0.4792 -10.5917 2.6053 33.1476 -0.0000 -26.2537 -1.4410 7.3179 3.7439 -4.3475 0.0000 -0.0000 -13.0187 17.0380 1.7630 3.9980 -0.0000 -0.0000 -3.8622 -1.1291 -0.8577 -0.1649 0.0000 -0.0000 -10.6525 -28.2958 12.0056 9.5019 -0.0000 -0.0000
1.8125 31.7744 -5.5329 8.5254 -6.0464 -1.9547 -8.7348 11.6077 2.0501 5.9327 -5.2817 -3.8244 -6.6671 13.5457 4.6445 -22.3596 66.6464 -64.5815 -143.4886 -0.0000 -46.7505 -0.2980 -0.6800 -23.6670 32.8623 0.0000 24.3270 15.9953 -16.5841 -6.8273 -18.3834 34.7892 89.3048 14.8414 0.0000 -7.3580 0.4671 -10.6226 2.5322 33.1476 -0.0000 -26.2537 -1.4682 7.3930 3.7519 -4.3117 0.0000 -0.0000 -13.0270 16.9932 1.7775 3.9733 -0.0000 -0.0000 -3.8675 -1.1264 -0.8435 -0.1663 0.0000 -0.0000 -10.6453 -28.2842 11.9917 9.4747 -0.0000 -0.0000
1.8026 31.7743 -5.5323 8.5145 -6.0532 -1.9888 -8.7414 11.6381 2.0849 5.9423 -5.3020 -3.8432 -6.7518 13.4948 4.6376 -21.7114 66.4879 -64.9719 -142.1081 -0.0000 -46.5404 -0.2121 -0.5105 -22.5637 32.8623 0.0000 24.3270 16.0363 -16.5905 -6.8220 -18.3525 34.6970 89.2952 14.8631 0.0000 -7.3108 0.4536 -10.5691 2.4713 33.1476 -0.0000 -26.2537 -1.5963 7.7893 3.7957 -4.0886 0.0000 -0.0000 -13.1436 16.6482 1.7708 3.9305 -0.0000 -0.0000 -3.8452 -1.1163 -0.7890 -0.1876 0.0000 -0.0000 -10.6480 -28.3005 11.9599 9.5248 -0.0000 -0.0000
1.7966 31.7745 -5.5336 8.5165 -6.0647 -1.9998 -8.7545 11.6830 2.1087 5.9506 -5.3157 -3.8775 -6.8461 13.4357 4.6000 -21.0926 66.3022 -65.2863 -140.6581 -0.0000 -46.3220 -0.0545 -0.1389 -21.4023 32.8623 0.0000 24.3270 16.0512 -16.6061 -6.8254 -18.3063 34.6663 89.2793 14.8794 0.0000 -7.3307 0.4436 -10.5217 2.4281 33.1476 -0.0000 -26.2537 -1.6480 7.9101 3.8174 -4.0086 0.0000 -0.0000 -13.1801 16.5509 1.7843 3.8794 -0.0000 -0.0000 -3.8510 -1.1250 -0.7642 -0.1823 0.0000 -0.0000 -10.6477 -28.2836 11.9677 9.4923 -0.0000 -0.0000
1.7924 31.7748 -5.5348 8.5209 -6.0690 -1.9973 -8.7687 11.7153 2.1272 5.9565 -5.3245 -3.9343 -6.9240 13.3883 4.5515 -20.5845 66.1565 -65.5417 -139.0468 0.0000 -46.0241 0.0740 0.1991 -20.4042 32.8623 0.0000 24.3270 16.0813 -16.6192 -6.8388 -18.2786 34.6401 89.2657 14.9040 0.0000 -7.3549 0.4446 -10.5140 2.4350 33.1476 -0.0000 -26.2537 -1.6567 7.9014 3.8254 -4.0015 0.0000 -0.0000 -13.1791 16.5584 1.7860 3.9029 -0.0000 -0.0000 -3.8556 -1.1245 -0.7580 -0.1875 0.0000 -0.0000 -10.6507 -28.2817 11.9582 9.5538 -0.0000 -0.0000
1.7874 31.7751 -5.5364 8.5244 -6.0778 -1.9933 -8.7814 11.7546 2.1460 5.9690 -5.3282 -3.9930 -6.9464 13.3259 4.4898 -20.2033 66.0588 -65.7355 -137.3256 -0.0000 -45.8743 0.2246 0.6476 -19.1260 32.8623 0.0000 24.3270 16.0987 -16.6238 -6.8579 -18.2485 34.5741 89.2651 14.9023 0.0000 -7.3112 0.4478 -10.5010 2.4556 33.1476 -0.0000 -26.2537 -1.6668 7.8995 3.8338 -3.9913 0.0000 -0.0000 -13.1834 16.5645 1.7525 3.9504 -0.0000 -0.0000 -3.8640 -1.1411 -0.7416 -0.1784 0.0000 -0.0000 -10.6628 -28.3120 11.9906 9.5514 -0.0000 -0.0000
1.7839 31.7752 -5.5376 8.5257 -6.0786 -1.9815 -8.7899 11.7824 2.1599 5.9788 -5.3125 -4.0565 -7.0492 13.2875 4.4461 -19.5844 65.8318 -66.0010 -135.4868 0.0000 -45.5505 0.2753 0.8348 -18.2521 32.8623 0.0000 24.3270 16.0723 -16.6137 -6.8976 -18.1726 34.5003 89.2601 14.9083 -0.0000 -7.2565 0.4544 -10.5443 2.4815 33.1476 -0.0000 -26.2537 -1.6760 7.8955 3.8288 -3.9738 0.0000 -0.0000 -13.1781 16.5831 1.7335 3.9098 -0.0000 -0.0000 -3.8690 -1.1493 -0.7537 -0.1812 0.0000 -0.0000 -10.6794 -28.2525 11.9297 9.5546 -0.0000 -0.0000
1.7772 31.7757 -5.5399 8.5294 -6.0763 -1.9801 -8.8011 11.8106 2.1706 5.9916 -5.2773 -4.0883 -7.1182 13.2441 4.4168 -19.1301 65.6579 -66.2034 -133.5055 0.0000 -45.1884 0.4186 1.3609 -17.0983 32.8623 0.0000 24.3270 16.0926 -16.6128 -6.9050 -18.1439 34.5007 89.2418 14.9112 -0.0000 -7.2885 0.4547 -10.6195 2.4662 33.1476 -0.0000 -26.2537 -1.6935 7.8820 3.8440 -3.9542 0.0000 -0.0000 -13.1730 16.5906 1.7194 3.9013 -0.0000 -0.0000 -3.8745 -1.1348 -0.7382 -0.1730 0.0000 -0.0000 -10.6907 -28.2942 11.9586 9.5367 -0.0000 -0.0000
1.7723 31.7759 -5.5420 8.5297 -6.0797 -1.9700 -8.8110 11.8468 2.1833 6.0130 -5.2709 -4.1338 -7.4230 13.1515 4.4528 -18.4651 65.5953 -66.4380 -131.4107 0.0000 -44.9436 0.5421 1.8574 -16.2752 32.8623 0.0000 24.3270 16.1009 -16.6117 -6.9334 -18.1352 34.4931 89.2508 14.8720 -0.0000 -7.3206 0.4570 -10.6942 2.4612 33.1476 -0.0000 -26.2537 -1.7321 7.9702 3.8439 -3.8944 0.0000 -0.0000 -13.1908 16.5159 1.7219 3.8880 -0.0000 -0.0000 -3.8816 -1.1402 -0.7419 -0.1734 0.0000 -0.0000 -10.7017 -28.2507 11.8818 9.5393 -0.0000 -0.0000
1.7669 31.7758 -5.5451 8.5381 -6.0772 -1.9649 -8.8218 11.8738 2.2045 6.0132 -5.2447 -4.1818 -7.3807 13.0446 4.4265 -18.0332 65.5423 -66.6632 -129.1569 0.0000 -44.8131 0.5940 2.1622 -15.3650 32.8623 0.0000 24.3270 16.0850 -16.6143 -6.9687 -18.1051 34.4593 89.2562 14.8414 0.0000 -7.3413 0.4581 -10.6902 2.4680 33.1476 -0.0000 -26.2537 -1.7346 7.9141 3.8552 -3.9109 0.0000 -0.0000 -13.1758 16.5468 1.6991 3.9361 -0.0000 -0.0000 -3.8955 -1.1366 -0.7363 -0.1710 0.0000 -0.0000 -10.7075 -28.2489 11.8614 9.5035 -0.0000 -0.0000
